<svg xmlns="http://www.w3.org/2000/svg" xmlns:xlink="http://www.w3.org/1999/xlink" width="800" zoomAndPan="magnify" viewBox="0 0 600 607.92" height="800" preserveAspectRatio="xMidYMid meet" version="1.0"><defs><clipPath id="3a982aa3bd"><path d="M 178 41 L 423 41 L 423 559.753906 L 178 559.753906 Z M 178 41 " clip-rule="nonzero"/></clipPath></defs><g clip-path="url(#3a982aa3bd)"><path fill="#000000" d="M 317.570312 141.492188 C 321.425781 145.394531 325.394531 147.847656 330.210938 148.644531 C 330.804688 148.75 331.269531 148.964844 331.539062 149.546875 C 335.15625 157.089844 342.191406 159.242188 349.535156 160.683594 C 354.789062 161.707031 360.125 161.789062 365.390625 160.484375 C 373.222656 158.539062 378.363281 152.421875 378.496094 143.253906 C 378.570312 137.757812 379.824219 133.128906 382.550781 128.429688 C 388.796875 117.667969 382.953125 106.066406 375.089844 98.148438 C 367.910156 90.914062 361.824219 90.40625 349.628906 95.074219 C 350.035156 91.410156 351.953125 88.4375 353.246094 85.261719 C 355.421875 79.960938 353.359375 76.960938 347.589844 77.21875 C 344.398438 77.363281 341.671875 78.6875 339.300781 80.71875 C 337.496094 82.257812 335.816406 83.945312 334.078125 85.5625 C 333.082031 86.472656 332.617188 86.398438 331.964844 84.992188 C 327.113281 74.558594 320.699219 65.171875 312.792969 56.777344 C 301.136719 44.417969 286.664062 40.019531 270.199219 42.132812 C 249.878906 44.742188 234.179688 54.8125 223.640625 72.53125 C 222.9375 73.722656 221.464844 75.582031 222.472656 76.402344 C 223.789062 77.46875 224.78125 75.285156 225.796875 74.445312 C 228.347656 72.34375 230.917969 70.367188 234.035156 69.144531 C 242.242188 65.949219 249.679688 69.21875 252.519531 77.582031 C 253.679688 80.988281 254.273438 84.589844 255.078125 88.117188 C 258.363281 102.328125 266.828125 111.890625 280.859375 116.074219 C 296.328125 120.667969 312.027344 121.507812 327.859375 117.894531 C 329.601562 117.5 331.382812 117.128906 333.226562 117.542969 C 333.074219 118.804688 331.964844 118.753906 331.21875 119.085938 C 319.621094 124.3125 307.851562 129.199219 294.984375 129.972656 C 272.683594 131.320312 251.710938 126.539062 232.78125 114.488281 C 225.300781 109.730469 220.097656 102.929688 219.03125 93.644531 C 218.886719 92.339844 218.660156 90.632812 217.105469 90.363281 C 215.394531 90.0625 215.042969 91.886719 214.453125 93.003906 C 212.648438 96.417969 211.46875 100.0625 210.753906 103.972656 C 208.667969 100.226562 209.3125 94.371094 212.335938 90.828125 C 214.390625 88.429688 216.710938 86.246094 218.886719 83.945312 C 219.695312 83.085938 220.84375 82.4375 220.988281 81.121094 C 219.933594 80.304688 219.34375 81.089844 218.835938 81.578125 C 213.828125 86.390625 207.757812 90.488281 207.625 98.550781 C 207.53125 104.417969 209.621094 109.644531 212.285156 114.664062 C 214.035156 117.957031 216.046875 121.113281 218.058594 124.25 C 222.824219 131.710938 222.597656 134.300781 216.523438 140.582031 C 215.269531 141.875 213.984375 143.191406 212.949219 144.660156 C 210.597656 147.972656 210.761719 150.839844 213.46875 153.902344 C 216.015625 156.78125 218.761719 159.480469 221.3125 162.359375 C 225.859375 167.472656 226.367188 173.300781 223.921875 179.46875 C 222.335938 183.453125 220.449219 187.335938 218.792969 191.289062 C 216.699219 196.277344 217.175781 200.996094 220.472656 205.375 C 222.636719 208.25 225.289062 210.820312 226.253906 214.472656 C 226.398438 215.03125 226.863281 215.496094 227.527344 215.269531 C 228.210938 215.03125 228.109375 214.390625 227.984375 213.839844 C 227.445312 211.335938 226.210938 209.132812 224.449219 207.363281 C 218.761719 201.648438 218.273438 195.40625 222.035156 188.492188 C 223.382812 186.019531 224.410156 183.359375 225.539062 180.773438 C 228.679688 173.527344 227.777344 166.839844 222.554688 160.867188 C 220.398438 158.40625 218.046875 156.097656 215.796875 153.707031 C 212.453125 150.144531 212.398438 147.984375 215.632812 144.296875 C 216.75 143.023438 218.015625 141.886719 219.195312 140.664062 C 223.941406 135.726562 224.472656 131.679688 221.15625 125.636719 C 220.742188 124.882812 220.335938 124.117188 220.171875 123.152344 C 224.273438 127.097656 228.894531 130.5 232.054688 135.324219 C 234.46875 139.019531 233.890625 143.117188 233.277344 147.1875 C 232.140625 154.730469 232.140625 154.730469 239.558594 154.070312 C 243.496094 153.71875 244.074219 154.171875 244.160156 158.238281 C 244.199219 160.207031 244.625 161.605469 246.933594 161.582031 C 247.472656 161.582031 248.457031 161.574219 248.386719 162.058594 C 247.753906 166.105469 250.511719 165.785156 253.070312 165.910156 C 254.023438 165.949219 254.105469 166.984375 254.46875 167.648438 C 258.570312 175.234375 263.855469 176.972656 271.660156 173.257812 C 274.226562 172.035156 276.683594 170.585938 278.714844 168.601562 C 280.226562 167.109375 280.847656 167.523438 281.875 169.179688 C 289.398438 181.425781 288.207031 191.679688 277.925781 201.886719 C 271.628906 208.136719 264.125 212.878906 257.214844 218.363281 C 244.71875 228.308594 232.355469 238.402344 220.980469 249.632812 C 217.664062 252.902344 214.710938 256.503906 212.722656 260.757812 C 209.53125 267.535156 209.445312 274.078125 214.542969 280.101562 C 214.960938 280.597656 215.320312 281.148438 215.882812 281.894531 C 213.859375 282.535156 212.046875 283.042969 210.285156 283.695312 C 207.3125 284.789062 205.953125 287.171875 205.425781 290.132812 C 205.3125 290.761719 205.199219 291.613281 206.078125 291.796875 C 206.992188 292.003906 207.230469 291.125 207.332031 290.523438 C 208.128906 285.878906 211.632812 284.957031 215.519531 284.285156 C 217.34375 283.972656 218.75 284.117188 220.152344 285.421875 C 221.558594 286.726562 223.1875 287.824219 225.1875 288.0625 C 227.402344 288.320312 229.101562 287.386719 229.546875 285.214844 C 230.003906 282.949219 228.417969 281.996094 226.398438 281.6875 C 225.394531 281.53125 224.378906 281.417969 223.363281 281.3125 C 221.136719 281.085938 218.699219 282.359375 216.8125 279.863281 C 214.296875 276.542969 212.160156 273.1875 212.546875 268.777344 C 213.050781 262.828125 216.089844 258.117188 219.859375 253.800781 C 225.464844 247.386719 232.023438 241.984375 238.417969 236.382812 C 249.070312 227.046875 260.300781 218.445312 271.605469 209.929688 C 276.132812 206.511719 280.382812 202.777344 283.6875 198.097656 C 290.019531 189.144531 290.601562 179.964844 284.878906 170.472656 C 282.082031 165.835938 282.113281 165.796875 285.523438 161.457031 C 288.765625 157.328125 291.46875 152.910156 292.941406 147.839844 C 293.4375 146.097656 293.800781 144.320312 293.554688 142.476562 C 292.898438 137.695312 289.097656 136.121094 285.210938 139.019531 C 277.71875 144.617188 274.953125 153.550781 278.382812 162.296875 C 279.378906 164.832031 278.859375 166.167969 276.871094 167.636719 C 274.019531 169.726562 271.128906 171.675781 267.667969 172.59375 C 260.921875 174.375 254.914062 169.085938 255.535156 162.140625 C 255.710938 160.238281 257.660156 157.847656 255.710938 156.523438 C 254.167969 155.476562 252.738281 158.011719 251.132812 158.738281 C 247.621094 160.332031 246.78125 159.925781 246.21875 156.117188 C 245.765625 153.035156 243.628906 151.738281 239.546875 152.070312 C 234.417969 152.496094 234.316406 152.476562 235.289062 147.300781 C 236.625 140.179688 235.03125 134.175781 229.488281 129.207031 C 225.703125 125.8125 222.398438 121.871094 218.605469 118.484375 C 212.785156 113.300781 211.757812 107.058594 213.839844 99.96875 C 214.492188 97.742188 215.414062 95.589844 216.554688 92.445312 C 217.726562 96.46875 218.058594 99.597656 219.476562 102.402344 C 223.363281 110.082031 229.394531 115.691406 236.957031 119.40625 C 263.835938 132.613281 291.460938 137.230469 320.277344 125.761719 C 320.566406 125.648438 320.90625 125.6875 322.160156 125.566406 C 316.667969 129.859375 315.613281 135.230469 315.53125 141.058594 C 315.414062 148.386719 317.863281 154.492188 323.28125 159.523438 C 329.746094 165.527344 336.53125 171.199219 342.410156 177.832031 C 346.085938 181.992188 349.796875 186.226562 352.335938 191.144531 C 358.074219 202.25 366.507812 211.273438 374.5625 220.589844 C 385.140625 232.832031 396.910156 244.023438 406.621094 257.03125 C 411.636719 263.75 416.527344 270.589844 418.960938 278.757812 C 423.230469 293.050781 418.554688 302.800781 404.753906 308.429688 C 396.257812 311.898438 387.492188 314.597656 378.675781 317.125 C 366.148438 320.714844 353.289062 322.890625 340.625 325.890625 C 337.445312 326.648438 334.324219 327.722656 331.226562 328.789062 C 327.984375 329.898438 327.042969 332.265625 327.765625 335.515625 C 328.449219 338.589844 330.035156 341.179688 331.941406 343.578125 C 333.621094 345.699219 334.648438 347.925781 334.535156 350.710938 C 334.410156 353.691406 335.765625 356.15625 337.703125 358.347656 C 340.023438 360.976562 342.367188 363.597656 344.53125 366.351562 C 345.828125 368.003906 347.101562 369.777344 347.214844 371.785156 C 344.574219 369.414062 341.878906 366.835938 339 364.496094 C 337.632812 363.390625 336.171875 360.417969 334.679688 361.859375 C 333.320312 363.171875 336.347656 364.433594 337.445312 365.625 C 341.984375 370.542969 346.085938 375.800781 350.210938 381.058594 C 351.414062 382.589844 352.066406 384.328125 352.324219 386.875 C 347.246094 382.671875 342.59375 378.820312 337.941406 374.992188 C 335.933594 373.335938 333.921875 371.679688 331.839844 370.128906 C 331.238281 369.671875 330.535156 368.347656 329.644531 369.433594 C 328.84375 370.40625 330.027344 371.046875 330.65625 371.578125 C 335.445312 375.5625 340.316406 379.433594 345.0625 383.46875 C 347.382812 385.445312 349.476562 387.691406 351.652344 389.835938 C 352.117188 390.300781 352.800781 390.859375 352.230469 391.53125 C 351.960938 391.84375 351.175781 391.84375 350.644531 391.78125 C 349.984375 391.695312 349.296875 391.511719 348.707031 391.199219 C 336.316406 384.804688 323.933594 378.34375 315.074219 367.0625 C 307.613281 357.574219 302.308594 347.058594 300.382812 335.03125 C 298.847656 325.488281 302.234375 318.210938 310.535156 313.203125 C 315.800781 310.023438 321.488281 307.777344 327.238281 305.707031 C 339.269531 301.371094 349.984375 295.089844 358.457031 285.347656 C 358.675781 285.089844 358.933594 284.863281 359.171875 284.625 C 366.210938 277.730469 366.199219 277.730469 375.097656 281.46875 C 378.976562 283.09375 382.933594 284.460938 387.117188 285.027344 C 389.128906 285.296875 391.472656 285.679688 392.578125 283.464844 C 393.75 281.125 392.144531 279.222656 390.519531 277.855469 C 384.796875 273.0625 378.09375 272.320312 371.339844 274.6875 C 367.898438 275.898438 365.453125 275.09375 362.871094 273.332031 C 358.664062 270.464844 355.910156 266.605469 355.058594 261.503906 C 354.542969 258.386719 354.148438 255.230469 352.976562 252.25 C 350.667969 246.371094 341.714844 243.226562 336.253906 246.359375 C 335.871094 246.578125 335.433594 246.785156 335.570312 247.375 C 335.703125 247.953125 336.210938 247.984375 336.625 247.964844 C 337.984375 247.890625 339.332031 247.757812 340.6875 247.625 C 347.484375 246.941406 350.199219 248.835938 351.898438 255.511719 C 352.179688 256.605469 352.46875 257.703125 352.59375 258.820312 C 353.207031 264.390625 355.050781 269.367188 359.515625 273.023438 C 359.257812 273.34375 359.109375 273.644531 358.996094 273.632812 C 345.683594 272.421875 335.339844 278.683594 326.066406 287.097656 C 312.171875 299.707031 300.660156 314.164062 293.644531 331.75 C 290.703125 339.140625 289.199219 346.933594 288.972656 354.933594 C 288.703125 364.332031 287.460938 373.644531 286.691406 383.003906 C 286.527344 384.949219 285.636719 387.558594 287.800781 388.59375 C 290.214844 389.75 291.976562 387.527344 293.542969 385.953125 C 296.589844 382.878906 297.46875 378.914062 297.789062 374.785156 C 297.9375 372.984375 297.875 371.164062 297.976562 369.363281 C 298.246094 365.015625 300.640625 363.359375 304.878906 364.609375 C 308.339844 365.636719 311.042969 367.933594 313.6875 370.230469 C 323.03125 378.375 333.1875 385.332031 344.117188 391.167969 C 345.714844 392.019531 347.351562 392.816406 349.050781 393.40625 C 352.71875 394.667969 354.085938 393.890625 355.328125 390.042969 C 356.75 390.867188 357.039062 392.390625 357.359375 393.703125 C 360.125 404.832031 365.648438 414.652344 371.410156 424.414062 C 375.628906 431.554688 379.152344 439.070312 379.917969 447.472656 C 381.78125 467.882812 377.960938 486.679688 363.855469 502.464844 C 360.542969 506.179688 357.296875 509.957031 354.074219 513.757812 C 351.566406 516.707031 349.621094 520.019531 347.910156 523.484375 C 347.609375 524.097656 347.257812 524.863281 347.921875 525.335938 C 348.65625 525.867188 349.214844 525.191406 349.496094 524.59375 C 354.117188 514.769531 362.863281 508.085938 368.839844 499.328125 C 384.683594 476.132812 387.367188 451.75 374.621094 426.277344 C 372.042969 421.132812 368.996094 416.207031 366.03125 411.257812 C 364.148438 408.113281 362.957031 404.707031 361.941406 401.238281 C 359.453125 392.699219 355.671875 384.773438 350.789062 377.351562 C 350.304688 376.605469 349.527344 375.953125 349.703125 374.949219 C 350.574219 370.105469 347.765625 366.792969 344.9375 363.492188 C 343.394531 361.691406 341.859375 359.871094 340.210938 358.152344 C 337.671875 355.503906 336.035156 352.574219 336.347656 348.742188 C 336.523438 346.570312 335.339844 344.875 334.117188 343.207031 C 332.441406 340.929688 330.804688 338.640625 329.882812 335.910156 C 328.9375 333.125 329.714844 331.4375 332.535156 330.371094 C 339.992188 327.546875 347.816406 326.234375 355.578125 324.667969 C 371.472656 321.460938 387.058594 317.175781 402.257812 311.515625 C 404.164062 310.800781 406.039062 310.003906 407.863281 309.101562 C 420.546875 302.882812 424.90625 293.050781 421.167969 279.386719 C 419.1875 272.175781 415.304688 265.953125 411.085938 259.898438 C 402.898438 248.152344 392.972656 237.894531 383.273438 227.441406 C 375.648438 219.222656 368.476562 210.613281 361.378906 201.949219 C 360.023438 200.292969 358.726562 198.523438 357.753906 196.628906 C 351.445312 184.363281 342.511719 174.25 332.285156 165.144531 C 328.824219 162.058594 325.488281 158.820312 322.296875 155.464844 C 318.816406 151.75 317.5625 147.1875 317.570312 141.492188 Z M 330.121094 92.921875 C 330.566406 93.085938 331 93.242188 331.445312 93.40625 C 331.609375 92.980469 331.789062 92.558594 331.941406 92.125 C 333.796875 86.761719 338.429688 83.976562 342.605469 80.800781 C 344.242188 79.558594 346.230469 78.894531 348.335938 78.96875 C 351.890625 79.09375 352.957031 80.71875 351.628906 83.976562 C 349.859375 88.375 347.816406 92.683594 346.6875 97.320312 C 346.511719 98.03125 346.375 98.769531 345.207031 98.757812 C 341.871094 98.726562 340.894531 101.355469 340.199219 103.851562 C 338.824219 108.726562 339.425781 113.589844 341.703125 118.03125 C 343.03125 120.605469 342.460938 122.253906 340.769531 124.292969 C 335.734375 130.355469 331.351562 136.804688 331.011719 145.074219 C 330.925781 146.957031 329.882812 146.710938 328.71875 146.285156 C 324.191406 144.609375 319.539062 142.777344 318.390625 137.46875 C 317.3125 132.476562 320.761719 129.289062 324.078125 126.277344 C 324.660156 125.75 325.300781 125.253906 325.984375 124.871094 C 328.742188 123.308594 331.539062 121.839844 334.273438 120.246094 C 335.382812 119.59375 337.15625 119.117188 336.824219 117.480469 C 336.441406 115.585938 334.574219 115.515625 332.980469 115.433594 C 330.234375 115.285156 327.558594 115.90625 324.917969 116.464844 C 310.046875 119.570312 295.386719 118.535156 280.984375 114.074219 C 267.980469 110.039062 260.125 101.097656 257.046875 87.878906 C 256.199219 84.246094 255.609375 80.53125 254.394531 77.023438 C 250.996094 67.230469 241.984375 63.496094 232.53125 67.757812 C 230.855469 68.515625 229.246094 69.4375 227.433594 70.378906 C 227.558594 69.871094 227.546875 69.632812 227.664062 69.46875 C 228.097656 68.804688 228.523438 68.132812 229.019531 67.519531 C 238.210938 56.167969 249.679688 48.136719 264.054688 45.09375 C 278.601562 42.007812 292.734375 42.941406 305.097656 52.480469 C 313.550781 59.011719 319.851562 67.40625 325.238281 76.527344 C 328.203125 81.546875 332.097656 86.277344 330.121094 92.921875 Z M 376.46875 137.734375 C 377.035156 140.210938 376.914062 142.144531 376.652344 144.039062 C 375.503906 152.527344 371.535156 157.410156 364.363281 158.769531 C 356.261719 160.308594 348.34375 159.480469 340.8125 155.953125 C 338.335938 154.792969 336.085938 153.273438 334.523438 150.933594 C 333.601562 149.546875 333.21875 148.636719 335.175781 147.507812 C 342.8125 143.109375 346.59375 136.164062 346.367188 127.550781 C 346.242188 122.925781 347.144531 119.042969 349.414062 115.121094 C 351.796875 111.011719 352.613281 106.417969 349.652344 102.285156 C 347.640625 99.480469 349.121094 98.261719 351.050781 96.90625 C 357.152344 92.566406 365.640625 92.878906 371.667969 97.578125 C 376.175781 101.085938 379.003906 105.785156 381.398438 110.855469 C 385.296875 119.09375 382.289062 126.050781 377.605469 133.214844 C 376.632812 131.296875 375.929688 129.777344 375.097656 128.328125 C 373.007812 124.652344 370.507812 121.3125 366.6875 119.230469 C 363.058594 117.253906 360.832031 117.78125 358.605469 121.164062 C 355.546875 125.78125 353.722656 130.84375 353.175781 136.347656 C 352.519531 142.921875 354.59375 144.847656 361.171875 143.8125 C 366.582031 142.964844 371.617188 141.078125 376.46875 137.734375 Z M 306.765625 312.664062 C 313.105469 302.6875 320.722656 293.816406 329.851562 286.332031 C 334.9375 282.160156 340.367188 278.457031 346.851562 276.707031 C 352.832031 275.09375 358.757812 275.269531 365.691406 276.976562 C 361.089844 279.585938 358.210938 282.617188 355.382812 285.679688 C 348.492188 293.152344 340.160156 298.390625 330.761719 302.128906 C 322.691406 305.335938 314.339844 307.953125 306.765625 312.664062 Z M 298.113281 326.800781 C 297.324219 333.777344 299.148438 340.277344 301.40625 346.703125 C 303.65625 353.089844 306.910156 358.96875 310.597656 364.722656 C 309.65625 364.515625 308.898438 364.113281 308.132812 363.730469 C 300.546875 360.003906 296.082031 362.695312 295.976562 371.078125 C 295.9375 374.246094 295.832031 377.425781 294.703125 380.4375 C 293.613281 383.3125 291.9375 385.652344 288.132812 387.082031 C 291.5625 366.515625 288.484375 345.660156 298.113281 326.800781 Z M 354.996094 138.71875 C 355.320312 132.632812 356.902344 127.519531 359.785156 122.820312 C 361.773438 119.570312 363.503906 119.179688 366.6875 121.371094 C 370.726562 124.167969 373.058594 128.253906 375.121094 132.582031 C 376.074219 134.589844 375.710938 135.925781 373.835938 137.105469 C 369.253906 139.992188 364.3125 141.648438 358.914062 142.082031 C 355.992188 142.320312 354.65625 141.121094 354.996094 138.71875 Z M 281.367188 163.289062 C 276.996094 156.230469 278.621094 147.703125 285.417969 141.574219 C 286.703125 140.417969 288.039062 138.667969 290.039062 139.773438 C 292.039062 140.882812 291.832031 142.984375 291.5 144.917969 C 290.257812 152.195312 286.226562 157.910156 281.367188 163.289062 Z M 343.808594 123.929688 C 345.691406 132.0625 341.609375 141.753906 335.300781 145.25 C 334.742188 145.5625 333.964844 145.976562 333.464844 145.808594 C 332.480469 145.46875 332.894531 144.453125 333.019531 143.738281 C 334.316406 136.101562 338.304688 129.953125 343.808594 123.929688 Z M 370.085938 276.976562 C 377.429688 274.597656 383.429688 274.90625 388.964844 278.984375 C 390.03125 279.769531 391.304688 280.980469 390.796875 282.335938 C 390.195312 283.921875 388.433594 283.238281 387.210938 283.050781 C 381.449219 282.191406 376.21875 279.824219 370.085938 276.976562 Z M 347.207031 102.453125 C 350.625 106.53125 349.972656 112.511719 345.808594 116.488281 C 345.351562 111.714844 345.589844 107.203125 347.207031 102.453125 Z M 345.652344 100.484375 C 343.839844 106.074219 343.226562 111.375 343.578125 116.777344 C 340.199219 109.988281 340.9375 103.144531 345.652344 100.484375 Z M 221.300781 283.320312 C 223.746094 283.339844 225.789062 282.773438 227.425781 284.375 C 227.921875 284.863281 227.382812 285.527344 226.886719 285.671875 C 224.761719 286.3125 223 285.710938 221.300781 283.320312 Z M 235.941406 296.652344 C 229.070312 296.652344 222.203125 296.652344 215.34375 296.652344 C 211.261719 296.652344 207.175781 296.753906 203.199219 297.769531 C 197.425781 299.238281 195.511719 302.882812 198.039062 308.183594 C 199.363281 310.964844 199.839844 313.386719 198.226562 316.160156 C 197.632812 317.1875 197.46875 318.53125 197.375 319.753906 C 197.105469 323.128906 198.546875 324.628906 201.902344 324.472656 C 203.695312 324.390625 205.46875 324.058594 207.425781 323.820312 C 207.476562 325.570312 206.265625 326.367188 205.28125 327.101562 C 187.59375 340.277344 181.5625 359.40625 179.066406 379.90625 C 175.210938 411.515625 190.070312 434.472656 214.304688 452.710938 C 219.382812 456.53125 224.949219 459.636719 230.511719 462.617188 C 234.511719 464.757812 239.226562 464.863281 243.753906 465.214844 C 244.292969 465.253906 244.820312 465.359375 245.175781 465.410156 C 245.578125 466.167969 245.234375 466.519531 244.945312 466.828125 C 230.949219 481.328125 219.488281 497.683594 209.519531 515.144531 C 202.121094 528.101562 194.453125 540.925781 186.921875 553.800781 C 186.351562 554.773438 185.769531 555.757812 185.3125 556.78125 C 185.023438 557.433594 184.226562 558.304688 185.160156 558.894531 C 186.414062 559.679688 186.652344 558.292969 187.023438 557.640625 C 191.375 550.09375 195.480469 542.40625 200.027344 534.984375 C 210.140625 518.515625 219.011719 501.253906 231.03125 485.988281 C 236.003906 479.671875 241.359375 473.691406 246.769531 467.75 C 248.273438 466.105469 249.828125 465.390625 252.023438 465.277344 C 261.960938 464.757812 271.523438 462.625 280.445312 458.09375 C 284.621094 455.972656 288.464844 453.363281 290.929688 449.210938 C 292.484375 446.59375 293.554688 443.707031 291.738281 440.902344 C 290 438.210938 287.003906 438.015625 284.113281 438.28125 C 279.605469 438.695312 275.636719 440.644531 271.875 443.003906 C 264.136719 447.847656 257.628906 454.160156 251.203125 460.546875 C 248.957031 462.769531 246.757812 463.539062 243.453125 463.414062 C 234.988281 463.082031 228.078125 459.261719 221.238281 454.96875 C 204.378906 444.367188 191.230469 430.582031 184.257812 411.632812 C 177.761719 393.996094 179.894531 376.472656 185.636719 359.105469 C 187.480469 353.503906 190.070312 348.226562 193.011719 343.113281 C 195.707031 338.445312 199.035156 334.429688 203.417969 331.199219 C 206.183594 329.160156 209.28125 327.238281 210.214844 323.46875 C 210.429688 322.570312 211.46875 322.621094 212.203125 322.414062 C 215.46875 321.480469 218.75 320.621094 221.996094 319.597656 C 223.765625 319.039062 226.128906 318.699219 226.035156 316.191406 C 225.933594 313.460938 223.332031 314.070312 220.574219 313.378906 C 225.113281 312.496094 228.65625 311.816406 232.210938 311.101562 C 233.320312 310.882812 234.429688 310.644531 235.496094 310.292969 C 236.707031 309.890625 237.941406 309.238281 237.816406 307.757812 C 237.703125 306.359375 236.59375 305.6875 235.246094 305.449219 C 234.148438 305.253906 233.070312 305.003906 231.992188 304.375 C 233.144531 304.3125 234.304688 304.300781 235.453125 304.167969 C 237.0625 303.980469 239.183594 304.570312 239.746094 302.375 C 240.285156 300.296875 237.921875 300.171875 236.863281 299.074219 C 237.921875 298.265625 239.960938 299.261719 240.199219 297.5 C 240.4375 295.667969 238.675781 295.140625 237.371094 294.582031 C 232.84375 292.675781 227.972656 292.148438 223.195312 291.238281 C 220.523438 290.730469 217.859375 290.214844 215.167969 289.851562 C 214.203125 289.71875 212.585938 288.507812 212.296875 290.164062 C 211.996094 291.878906 213.984375 291.570312 215.0625 291.765625 C 219.40625 292.5625 223.777344 293.207031 228.117188 293.972656 C 230.761719 294.457031 233.445312 294.914062 235.941406 296.652344 Z M 223.582031 316.410156 C 216.421875 319.101562 209.25 321.6875 201.59375 322.476562 C 199.832031 322.660156 199.230469 321.503906 199.273438 319.898438 C 199.300781 318.375 199.871094 317.019531 200.566406 315.726562 C 201.871094 313.316406 201.664062 311.078125 200.410156 308.648438 C 197.46875 302.976562 198.796875 300.410156 205.25 299.351562 C 212.566406 298.152344 219.921875 298.296875 227.25 299.292969 C 230.5 299.726562 233.847656 299.972656 237.070312 301.359375 C 236.273438 302.519531 235.414062 302.199219 234.699219 302.25 C 228.9375 302.6875 223.175781 302.996094 217.425781 303.523438 C 215.789062 303.667969 213.023438 303.191406 213.105469 305.574219 C 213.199219 308.078125 215.890625 307.179688 217.527344 307.167969 C 221.714844 307.148438 225.902344 306.886719 230.097656 306.816406 C 231.859375 306.785156 233.722656 306.535156 235.289062 307.871094 C 234.117188 309.371094 232.367188 309.019531 230.886719 309.320312 C 224.667969 310.574219 218.449219 311.804688 212.367188 313.59375 C 211.21875 313.9375 209.539062 314.09375 209.800781 315.726562 C 210.109375 317.621094 211.882812 317.011719 213.15625 316.980469 C 214.046875 316.957031 214.9375 316.660156 215.839844 316.566406 C 218.378906 316.308594 220.875 315.375 223.582031 316.410156 Z M 251.140625 463.476562 C 253.171875 461.4375 254.46875 460.050781 255.855469 458.765625 C 262.238281 452.886719 268.394531 446.675781 276.3125 442.753906 C 279.460938 441.203125 282.695312 439.792969 286.339844 440.15625 C 290.195312 440.539062 291.429688 442.558594 290.132812 446.242188 C 289.085938 449.234375 287.023438 451.5 284.507812 453.269531 C 274.765625 460.132812 263.636719 462.511719 251.140625 463.476562 Z M 251.140625 463.476562 " fill-opacity="1" fill-rule="nonzero"/></g></svg>