<svg xmlns="http://www.w3.org/2000/svg" xmlns:xlink="http://www.w3.org/1999/xlink" width="800" zoomAndPan="magnify" viewBox="0 0 600 607.92" height="800" preserveAspectRatio="xMidYMid meet" version="1.0"><defs><clipPath id="e95af7b5b6"><path d="M 134 13.125 L 466.984375 13.125 L 466.984375 586.800781 L 134 586.800781 Z M 134 13.125 " clip-rule="nonzero"/></clipPath></defs><g clip-path="url(#e95af7b5b6)"><path fill="#000000" d="M 464.3125 408.34375 C 416.554688 409.25 368.308594 411.621094 321.320312 420.621094 C 319.367188 420.96875 317.410156 421.386719 315.457031 421.804688 C 317.621094 413.644531 320.0625 405.621094 322.296875 397.527344 C 329.140625 373.109375 333.957031 347.160156 323.695312 323.019531 C 316.292969 305.4375 302.46875 290.578125 285.292969 282.066406 C 285.433594 280.953125 285.640625 279.765625 285.851562 278.648438 C 288.925781 261.136719 295.976562 244.882812 306.867188 230.792969 C 315.246094 219.90625 325.578125 210.769531 334.445312 200.304688 C 349.179688 183.003906 356.507812 160.886719 352.878906 138.214844 C 351.34375 128.515625 347.851562 118.957031 342.40625 110.726562 C 336.820312 102.285156 328.929688 96.003906 320.621094 90.425781 C 310.917969 83.9375 300.582031 78.566406 290.390625 72.914062 C 283.828125 69.285156 276.914062 65.65625 270.910156 60.984375 C 272.65625 59.519531 274.261719 57.914062 275.726562 56.238281 C 279.078125 52.332031 281.59375 47.660156 282.011719 42.496094 C 282.359375 38.171875 281.453125 33.636719 280.335938 29.449219 C 279.148438 25.265625 277.613281 20.800781 275.101562 17.242188 C 273.492188 15.007812 271.328125 13.125 268.398438 13.960938 C 264.835938 15.007812 262.324219 18.777344 260.578125 21.777344 C 256.179688 29.171875 252.828125 39.289062 255.480469 47.867188 C 257.085938 53.03125 260.507812 57.285156 264.488281 60.84375 C 255.269531 67.542969 244.378906 72.144531 234.394531 77.308594 C 221.269531 84.074219 207.933594 91.472656 197.878906 102.492188 C 187.40625 114.003906 182.660156 128.726562 184.125 144.214844 C 186.078125 164.863281 198.019531 184.257812 216.800781 193.816406 C 234.535156 202.816406 255.339844 198.070312 271.46875 187.816406 C 280.546875 192.699219 290.808594 194.164062 300.722656 191.304688 C 303.167969 190.605469 302.121094 186.769531 299.675781 187.46875 C 291.296875 189.910156 282.851562 188.722656 275.238281 185.234375 C 275.449219 185.09375 275.589844 184.957031 275.796875 184.886719 C 291.019531 173.652344 302.328125 157.539062 302.957031 138.214844 C 303.515625 121.539062 295.695312 104.097656 278.101562 100.261719 C 256.667969 95.65625 243.050781 115.820312 241.867188 135.074219 C 240.679688 155.027344 250.941406 174.628906 267.558594 185.582031 C 251.570312 195.070312 231.394531 198.839844 214.914062 188.304688 C 197.601562 177.140625 187.476562 158.234375 187.753906 137.65625 C 188.175781 105.074219 219.035156 89.585938 244.378906 76.75 C 252.058594 72.84375 260.507812 68.9375 267.628906 63.636719 C 268.46875 64.261719 269.304688 64.890625 270.074219 65.519531 C 278.449219 71.519531 287.738281 76.191406 296.742188 81.144531 C 306.9375 86.726562 317.199219 92.449219 326.277344 99.632812 C 333.679688 105.492188 339.472656 112.539062 343.453125 121.121094 C 352.878906 141.28125 351.480469 165.421875 340.519531 184.746094 C 332.910156 198.140625 321.109375 208.257812 310.917969 219.628906 C 300.445312 231.347656 291.855469 244.324219 286.621094 259.183594 C 284.175781 266.09375 282.5 273.207031 281.382812 280.464844 C 279.917969 279.835938 278.382812 279.207031 276.84375 278.71875 C 267.140625 275.300781 256.738281 274.464844 246.335938 275.160156 C 245.425781 262.535156 241.867188 250.535156 235.234375 239.652344 C 230.972656 232.675781 225.738281 226.324219 220.082031 220.328125 C 218.335938 218.441406 215.542969 221.304688 217.289062 223.117188 C 226.226562 232.605469 234.183594 243.210938 238.445312 255.628906 C 240.609375 261.976562 241.867188 268.671875 242.425781 275.441406 C 230.625 276.695312 218.964844 279.90625 208.28125 283.671875 C 187.546875 290.996094 167.296875 302.089844 151.171875 317.230469 C 145.375 322.601562 139.789062 328.808594 136.4375 336.066406 C 133.574219 342.207031 133.367188 348.34375 135.25 354.832031 C 139.371094 368.855469 152.496094 376.667969 165.414062 381.550781 C 181.613281 387.691406 198.925781 390.414062 215.753906 394.039062 C 230.625 397.25 247.660156 400.527344 259.808594 410.296875 C 267.558594 416.503906 271.886719 425.15625 273.144531 434.292969 C 267.488281 436.667969 261.972656 439.457031 256.875 442.875 C 249.683594 447.828125 241.375 455.640625 242.492188 465.339844 C 243.121094 470.851562 247.453125 476.570312 253.316406 476.921875 C 254.574219 476.992188 255.757812 476.710938 256.945312 476.222656 C 264.625 472.734375 270.28125 465.0625 273.5625 457.527344 C 276.496094 450.828125 277.683594 443.78125 277.265625 436.945312 C 278.871094 436.316406 280.476562 435.691406 282.082031 435.132812 C 281.871094 458.921875 281.453125 482.710938 281.105469 506.429688 C 280.824219 526.734375 280.125 547.660156 283.898438 567.683594 C 285.082031 573.824219 286.757812 580.101562 290.179688 585.472656 C 291.019531 586.730469 292.832031 586.800781 293.601562 585.472656 C 296.742188 580.382812 299.328125 574.800781 301.421875 569.21875 C 305.050781 559.660156 307.707031 548.707031 305.191406 538.59375 C 303.867188 533.21875 301.839844 528.265625 302.050781 522.6875 C 302.191406 518.359375 303.65625 514.316406 305.261719 510.335938 C 309.589844 499.316406 312.59375 488.433594 312.035156 476.433594 C 311.683594 469.734375 310.707031 463.105469 310.21875 456.410156 C 309.730469 450.132812 310.21875 444.410156 311.40625 438.269531 C 312.175781 434.226562 313.152344 430.25 314.128906 426.273438 C 349.039062 418.597656 385.207031 415.808594 420.8125 413.992188 C 435.265625 413.296875 449.71875 412.808594 464.101562 412.527344 C 466.894531 412.25 466.894531 408.273438 464.3125 408.34375 Z M 251.152344 161.234375 C 245.707031 149.933594 244.03125 136.46875 247.800781 124.398438 C 250.59375 115.46875 256.945312 106.539062 266.441406 104.027344 C 274.820312 101.796875 284.664062 105.285156 290.53125 111.492188 C 296.117188 117.421875 298.558594 125.65625 298.976562 133.609375 C 300.023438 152.933594 289.550781 169.609375 274.402344 180.980469 C 273.425781 181.746094 272.375 182.515625 271.257812 183.210938 C 262.601562 178.050781 255.410156 170.027344 251.152344 161.234375 Z M 265.882812 56.660156 C 259.53125 50.449219 257.367188 43.265625 259.601562 34.542969 C 260.855469 29.800781 262.882812 24.984375 265.882812 21.078125 C 266.652344 20.101562 268.257812 17.871094 269.722656 17.800781 C 270.769531 17.730469 271.46875 18.914062 272.027344 19.683594 C 274.679688 23.449219 276.078125 28.195312 277.125 32.660156 C 278.03125 36.566406 278.730469 40.820312 277.753906 44.796875 C 276.496094 49.75 273.214844 53.726562 269.445312 57.007812 C 268.886719 57.496094 268.328125 57.914062 267.769531 58.332031 C 267.070312 57.773438 266.441406 57.214844 265.882812 56.660156 Z M 295.488281 293.019531 C 314.546875 307.460938 326.347656 330.554688 325.859375 354.554688 C 325.371094 378.0625 317.0625 400.25 311.125 422.785156 C 302.816406 424.597656 294.507812 426.761719 286.410156 429.410156 C 286.480469 407.15625 286.339844 384.832031 285.851562 362.578125 C 285.503906 347.019531 284.804688 331.53125 284.035156 316.042969 C 283.546875 306.136719 283.6875 296.160156 284.804688 286.324219 C 288.503906 288.207031 292.066406 290.441406 295.488281 293.019531 Z M 251.917969 472.386719 C 251.78125 472.386719 251.710938 472.316406 251.917969 472.386719 Z M 265.253906 464.152344 C 262.671875 467.503906 259.53125 470.292969 255.828125 472.316406 C 255.410156 472.527344 254.574219 472.804688 255.269531 472.59375 C 255.203125 472.59375 255.0625 472.664062 254.992188 472.734375 C 254.851562 472.804688 254.644531 472.804688 254.433594 472.875 C 254.292969 472.875 253.664062 472.875 253.316406 472.875 C 253.316406 472.875 253.316406 472.875 253.386719 472.875 C 253.316406 472.875 253.246094 472.875 253.105469 472.804688 C 252.828125 472.734375 252.617188 472.664062 252.339844 472.59375 C 252.199219 472.527344 252.058594 472.527344 251.917969 472.457031 C 251.710938 472.316406 251.429688 472.246094 251.222656 472.105469 C 251.011719 471.96875 250.800781 471.828125 250.523438 471.6875 C 250.382812 471.617188 250.3125 471.550781 250.175781 471.410156 C 249.683594 470.992188 249.265625 470.570312 248.917969 470.152344 C 248.566406 469.804688 248.429688 469.59375 248.636719 469.804688 C 248.429688 469.527344 248.21875 469.246094 248.078125 468.96875 C 247.941406 468.6875 247.800781 468.480469 247.660156 468.199219 C 247.382812 467.640625 247.382812 467.640625 247.382812 467.640625 C 247.101562 467.015625 246.960938 466.316406 246.753906 465.617188 C 246.683594 465.480469 246.683594 465.269531 246.683594 465.128906 C 246.683594 465.128906 246.683594 465.128906 246.683594 465.0625 C 246.613281 464.640625 246.613281 464.292969 246.613281 463.875 C 246.613281 463.527344 246.613281 463.105469 246.613281 462.757812 C 246.683594 461.921875 246.613281 462.410156 246.683594 461.992188 C 247.382812 458.015625 249.476562 454.945312 252.269531 451.945312 C 256.945312 447.0625 262.882812 443.503906 269.027344 440.503906 C 270.5625 439.734375 272.097656 439.039062 273.632812 438.410156 C 273.84375 447.410156 271.050781 456.621094 265.253906 464.152344 Z M 281.105469 431.15625 C 279.777344 431.644531 278.382812 432.132812 277.054688 432.691406 C 275.378906 422.015625 269.722656 412.179688 260.226562 405.480469 C 247.242188 396.34375 230.414062 393.0625 215.195312 389.785156 C 198.226562 386.15625 180.773438 383.367188 164.574219 376.878906 C 151.796875 371.714844 139.578125 362.996094 138.183594 348.273438 C 137.554688 341.578125 140.835938 335.578125 144.746094 330.277344 C 150.332031 322.8125 157.59375 316.460938 165.0625 310.882812 C 184.195312 296.71875 206.746094 286.53125 229.996094 281.648438 C 234.183594 280.8125 238.445312 280.042969 242.773438 279.488281 C 242.914062 283.953125 242.773438 288.488281 242.355469 292.882812 C 241.585938 301.253906 239.003906 309.347656 233.90625 316.042969 C 232.371094 318.066406 235.792969 320.089844 237.328125 318.066406 C 245.707031 307.042969 247.242188 292.671875 246.683594 279.136719 C 252.898438 278.648438 259.179688 278.648438 265.183594 279.695312 C 270.632812 280.601562 275.867188 282.207031 280.894531 284.441406 C 280.753906 285.765625 280.546875 287.089844 280.40625 288.417969 C 279.078125 301.742188 279.847656 314.925781 280.476562 328.253906 C 281.941406 358.808594 282.292969 389.4375 282.222656 420.0625 C 282.222656 423.621094 282.152344 427.179688 282.152344 430.738281 C 281.941406 430.875 281.523438 431.015625 281.105469 431.15625 Z M 306.238281 453.621094 C 306.589844 460.246094 307.566406 466.804688 308.054688 473.433594 C 308.542969 479.992188 308.332031 486.410156 306.9375 492.828125 C 305.75 498.199219 303.867188 503.363281 301.839844 508.453125 C 300.304688 512.429688 298.839844 516.335938 298.417969 520.59375 C 297.929688 525.757812 298.976562 530.988281 300.515625 535.941406 C 303.933594 546.617188 301.839844 557.289062 297.929688 567.613281 C 296.324219 571.871094 294.371094 576.125 292.136719 580.171875 C 289.691406 575.148438 288.433594 569.566406 287.527344 564.125 C 285.921875 554.636719 285.503906 544.941406 285.292969 535.3125 C 284.664062 508.804688 285.851562 482.222656 286.132812 455.710938 C 286.199219 448.316406 286.269531 440.921875 286.339844 433.457031 C 290.949219 431.921875 295.558594 430.597656 300.234375 429.339844 C 303.445312 428.503906 306.726562 427.667969 310.007812 426.96875 C 309.382812 429.621094 308.753906 432.203125 308.195312 434.851562 C 306.867188 441.203125 305.890625 447.269531 306.238281 453.621094 Z M 306.238281 453.621094 " fill-opacity="1" fill-rule="nonzero"/></g></svg>