<svg xmlns="http://www.w3.org/2000/svg" xmlns:xlink="http://www.w3.org/1999/xlink" width="800" zoomAndPan="magnify" viewBox="0 0 600 607.92" height="800" preserveAspectRatio="xMidYMid meet" version="1.0"><defs><clipPath id="b9c841a459"><path d="M 186.015625 69 L 289 69 L 289 459 L 186.015625 459 Z M 186.015625 69 " clip-rule="nonzero"/></clipPath><clipPath id="f6d9c7874c"><path d="M 318 482 L 413.984375 482 L 413.984375 584.921875 L 318 584.921875 Z M 318 482 " clip-rule="nonzero"/></clipPath></defs><g clip-path="url(#b9c841a459)"><path fill="#0c0e21" d="M 221.972656 458.332031 L 221.558594 458.332031 C 209.230469 458.257812 200.542969 455.023438 197.726562 449.460938 C 187.820312 429.894531 187.394531 417.4375 186.554688 392.59375 L 186.535156 392.066406 C 186.09375 379.039062 188.046875 367.628906 192.679688 356.148438 C 196.808594 345.921875 202.574219 336.867188 208.671875 327.269531 C 217.128906 313.984375 225.871094 300.25 232.167969 280.972656 C 234.890625 272.636719 235.804688 265.914062 235.59375 260.496094 C 234.660156 260.59375 233.726562 260.691406 232.796875 260.773438 C 220.253906 261.925781 204.121094 261.996094 198.507812 255.765625 C 195.917969 252.894531 195.773438 249.109375 198.085938 244.507812 C 202.152344 236.433594 213.875 233.007812 223.683594 237.058594 C 229.789062 239.574219 234.339844 244.679688 236.503906 251.429688 C 237.160156 253.503906 237.597656 255.621094 237.824219 257.78125 C 250.046875 256.324219 262.003906 253.671875 268.414062 251.230469 C 278.65625 247.332031 284.894531 240.828125 285.980469 232.917969 C 287.25 223.671875 281.535156 213.363281 270.695312 205.34375 C 235.75 179.511719 217.152344 157.546875 215.421875 140.082031 C 214.726562 133.054688 218.199219 127.542969 221.558594 122.214844 C 223.011719 119.90625 224.386719 117.722656 225.367188 115.496094 C 228.078125 109.332031 227.136719 105.007812 226.136719 100.429688 C 225.492188 97.492188 224.828125 94.441406 225.273438 91 C 225.9375 85.847656 233.628906 83.414062 243.363281 80.355469 C 251.632812 77.75 261.003906 74.796875 268.15625 69.613281 C 268.289062 69.515625 268.433594 69.445312 268.59375 69.402344 C 268.753906 69.363281 268.914062 69.355469 269.078125 69.378906 C 269.238281 69.402344 269.390625 69.457031 269.53125 69.542969 C 269.671875 69.628906 269.792969 69.738281 269.886719 69.871094 C 269.984375 70.003906 270.050781 70.152344 270.089844 70.3125 C 270.125 70.472656 270.128906 70.632812 270.101562 70.796875 C 270.074219 70.960938 270.015625 71.109375 269.925781 71.25 C 269.839844 71.386719 269.726562 71.503906 269.589844 71.597656 C 262.117188 77.003906 252.550781 80.019531 244.097656 82.683594 C 235.546875 85.375 228.164062 87.703125 227.699219 91.304688 C 227.3125 94.324219 227.902344 97.035156 228.527344 99.902344 C 229.507812 104.4375 230.640625 109.582031 227.605469 116.476562 C 226.554688 118.867188 225.066406 121.230469 223.628906 123.511719 C 220.488281 128.496094 217.242188 133.648438 217.859375 139.839844 C 218.652344 147.859375 223.402344 157.128906 231.972656 167.390625 C 241.085938 178.300781 254.605469 190.414062 272.152344 203.394531 C 283.722656 211.960938 289.800781 223.125 288.40625 233.269531 C 287.183594 242.105469 280.402344 249.300781 269.289062 253.539062 C 263.503906 255.738281 251.117188 258.640625 238.011719 260.226562 C 238.289062 266.535156 237.113281 273.730469 234.496094 281.742188 C 228.101562 301.320312 218.875 315.804688 210.738281 328.59375 C 198.558594 347.730469 188.042969 364.257812 188.980469 391.976562 L 189 392.503906 C 189.828125 416.976562 190.246094 429.265625 199.90625 448.34375 C 202.226562 452.921875 210.527344 455.808594 221.574219 455.875 L 221.988281 455.875 C 241.796875 455.875 266.1875 447.285156 274.816406 430.742188 C 274.890625 430.597656 274.992188 430.476562 275.113281 430.371094 C 275.238281 430.265625 275.378906 430.191406 275.535156 430.140625 C 275.6875 430.09375 275.847656 430.074219 276.007812 430.089844 C 276.167969 430.101562 276.324219 430.148438 276.464844 430.222656 C 276.609375 430.296875 276.734375 430.398438 276.839844 430.523438 C 276.941406 430.644531 277.019531 430.785156 277.070312 430.941406 C 277.117188 431.09375 277.132812 431.253906 277.121094 431.414062 C 277.105469 431.578125 277.0625 431.730469 276.988281 431.875 C 272.636719 440.214844 264.355469 447.167969 253.039062 451.980469 C 243.554688 456.027344 232.253906 458.328125 221.972656 458.332031 Z M 214.941406 237.800781 C 208.644531 237.800781 202.761719 240.683594 200.28125 245.628906 C 198.441406 249.285156 198.457031 252.070312 200.332031 254.140625 C 204.980469 259.296875 220.132812 259.691406 235.421875 258.074219 C 234.035156 245.28125 226.035156 240.699219 222.757812 239.34375 C 220.253906 238.316406 217.648438 237.800781 214.941406 237.800781 Z M 214.941406 237.800781 " fill-opacity="1" fill-rule="nonzero"/></g><path fill="#0c0e21" d="M 335.390625 458.757812 C 329.3125 458.765625 323.386719 457.832031 317.605469 455.960938 C 305.285156 451.96875 294.152344 443.703125 285.414062 432.050781 C 285.316406 431.921875 285.246094 431.777344 285.207031 431.621094 C 285.167969 431.464844 285.15625 431.304688 285.179688 431.144531 C 285.203125 430.984375 285.253906 430.832031 285.339844 430.691406 C 285.421875 430.554688 285.527344 430.433594 285.65625 430.335938 C 285.789062 430.238281 285.929688 430.171875 286.089844 430.128906 C 286.246094 430.089844 286.40625 430.082031 286.566406 430.105469 C 286.726562 430.128906 286.878906 430.179688 287.015625 430.265625 C 287.15625 430.347656 287.273438 430.453125 287.371094 430.582031 C 296.355469 442.574219 321.789062 468.414062 363.808594 449.792969 C 363.960938 449.722656 364.117188 449.683594 364.28125 449.675781 C 364.445312 449.667969 364.605469 449.695312 364.757812 449.75 C 364.914062 449.808594 365.050781 449.894531 365.171875 450.007812 C 365.292969 450.121094 365.382812 450.253906 365.453125 450.402344 C 365.519531 450.554688 365.554688 450.710938 365.554688 450.875 C 365.558594 451.039062 365.53125 451.199219 365.46875 451.351562 C 365.40625 451.503906 365.320312 451.640625 365.203125 451.757812 C 365.085938 451.875 364.953125 451.964844 364.800781 452.027344 C 354.691406 456.507812 344.851562 458.757812 335.390625 458.757812 Z M 335.390625 458.757812 " fill-opacity="1" fill-rule="nonzero"/><path fill="#0c0e21" d="M 348.085938 529.519531 C 348.027344 529.519531 347.96875 529.515625 347.914062 529.507812 C 347.753906 529.484375 347.601562 529.433594 347.460938 529.347656 C 347.320312 529.265625 347.203125 529.160156 347.105469 529.03125 C 347.007812 528.902344 346.9375 528.757812 346.898438 528.601562 C 346.855469 528.445312 346.847656 528.285156 346.871094 528.125 C 346.945312 527.589844 354.535156 474.300781 363.5625 449.34375 C 367.847656 437.503906 368.582031 410.90625 365.53125 378.203125 C 362.375 344.34375 355.90625 311.234375 347.785156 287.367188 C 339.582031 263.265625 336.699219 243.046875 338.730469 223.742188 C 340.527344 206.523438 345.996094 190.949219 354.242188 171.433594 C 368.324219 138.078125 368.128906 96.855469 368.054688 81.335938 C 368.054688 80.152344 368.054688 79.105469 368.054688 78.214844 C 368.054688 75.425781 367.347656 73.4375 365.878906 72.140625 C 362.414062 69.078125 354.992188 70.011719 347.816406 70.917969 C 343.371094 71.472656 339.171875 72.003906 335.621094 71.683594 C 320.855469 70.359375 311.832031 62.59375 310.851562 50.382812 C 310.363281 43.632812 310.933594 36.976562 312.566406 30.414062 C 314.128906 24.171875 316.519531 18.910156 319.296875 15.566406 C 319.402344 15.445312 319.523438 15.351562 319.667969 15.277344 C 319.8125 15.207031 319.960938 15.164062 320.121094 15.152344 C 320.28125 15.140625 320.4375 15.15625 320.589844 15.207031 C 320.738281 15.253906 320.878906 15.328125 321 15.429688 C 321.121094 15.535156 321.222656 15.65625 321.296875 15.796875 C 321.371094 15.9375 321.417969 16.085938 321.433594 16.246094 C 321.449219 16.40625 321.4375 16.5625 321.390625 16.714844 C 321.347656 16.867188 321.273438 17.007812 321.175781 17.132812 C 315.6875 23.6875 312.292969 37.902344 313.273438 50.179688 C 314.46875 65.109375 327.914062 68.535156 335.820312 69.242188 C 339.109375 69.539062 343.179688 69.023438 347.492188 68.484375 C 355.207031 67.503906 363.1875 66.507812 367.480469 70.300781 C 369.476562 72.066406 370.484375 74.730469 370.480469 78.214844 C 370.480469 79.101562 370.480469 80.140625 370.480469 81.320312 C 370.558594 96.980469 370.753906 138.5625 356.476562 172.378906 C 341.34375 208.222656 332.722656 235.535156 350.09375 286.582031 C 358.273438 310.621094 364.777344 343.9375 367.957031 377.980469 C 371.042969 411.015625 370.253906 438.011719 365.855469 450.171875 C 356.914062 474.886719 349.359375 527.929688 349.285156 528.460938 C 349.246094 528.761719 349.109375 529.011719 348.882812 529.214844 C 348.65625 529.414062 348.386719 529.515625 348.085938 529.519531 Z M 348.085938 529.519531 " fill-opacity="1" fill-rule="nonzero"/><g clip-path="url(#f6d9c7874c)"><path fill="#0c0e21" d="M 338.285156 584.933594 C 335.652344 584.933594 332.898438 584.160156 330.207031 582.582031 C 325.601562 579.875 321.886719 575.042969 320.003906 569.332031 C 317.84375 562.738281 318.113281 555.265625 320.777344 547.722656 C 322.667969 542.375 325.25 538.375 328.195312 535.398438 C 327.335938 532.089844 327.332031 529.015625 328.195312 526.21875 C 331.261719 516.144531 344.589844 511.574219 355.847656 508.71875 C 373.578125 504.226562 395.5625 494.117188 411.855469 482.964844 C 411.988281 482.875 412.136719 482.8125 412.296875 482.777344 C 412.453125 482.746094 412.613281 482.742188 412.773438 482.773438 C 412.933594 482.804688 413.082031 482.863281 413.214844 482.949219 C 413.351562 483.039062 413.464844 483.152344 413.558594 483.285156 C 413.648438 483.417969 413.710938 483.566406 413.746094 483.726562 C 413.777344 483.882812 413.78125 484.042969 413.75 484.203125 C 413.722656 484.363281 413.660156 484.511719 413.574219 484.644531 C 413.484375 484.78125 413.371094 484.894531 413.238281 484.988281 C 396.726562 496.285156 374.433594 506.523438 356.445312 511.089844 C 345.804688 513.785156 333.238281 518.027344 330.527344 526.929688 C 329.914062 528.933594 329.835938 531.121094 330.28125 533.496094 C 335.882812 528.925781 342.414062 527.484375 347.902344 527.277344 C 348.0625 527.269531 348.222656 527.296875 348.371094 527.351562 C 348.523438 527.410156 348.660156 527.492188 348.78125 527.601562 C 348.898438 527.714844 348.992188 527.84375 349.058594 527.988281 C 349.128906 528.136719 349.164062 528.292969 349.171875 528.453125 C 349.175781 528.617188 349.152344 528.773438 349.097656 528.925781 C 349.039062 529.078125 348.957031 529.214844 348.847656 529.332031 C 348.734375 529.453125 348.605469 529.546875 348.457031 529.613281 C 348.3125 529.679688 348.15625 529.71875 347.996094 529.722656 C 342.695312 529.925781 336.3125 531.394531 330.992188 536.167969 C 332.578125 540.945312 336.074219 546.355469 341.480469 552.394531 L 341.53125 552.457031 C 342.210938 553.324219 342.960938 554.222656 343.753906 555.175781 C 349.21875 561.730469 356.703125 570.703125 348.253906 580.285156 C 345.542969 583.355469 342.03125 584.933594 338.285156 584.933594 Z M 329.074219 538.082031 C 326.71875 540.71875 324.65625 544.132812 323.097656 548.535156 C 317.664062 563.902344 323.621094 575.863281 331.460938 580.46875 C 336.890625 583.652344 342.621094 582.964844 346.421875 578.65625 C 353.480469 570.652344 347.316406 563.257812 341.878906 556.738281 C 341.078125 555.78125 340.324219 554.875 339.632812 553.988281 C 334.523438 548.285156 331 543.003906 329.152344 538.285156 Z M 329.074219 538.082031 " fill-opacity="1" fill-rule="nonzero"/></g><path fill="#0c0e21" d="M 282.210938 389.6875 C 282.027344 389.6875 281.851562 389.648438 281.6875 389.570312 C 281.539062 389.5 281.414062 389.40625 281.304688 389.285156 C 281.195312 389.164062 281.113281 389.027344 281.058594 388.875 C 281.003906 388.722656 280.980469 388.566406 280.988281 388.402344 C 280.996094 388.242188 281.035156 388.085938 281.105469 387.9375 C 290.160156 368.867188 291.464844 344.757812 290.972656 327.886719 C 290.433594 309.566406 287.710938 295.625 287.6875 295.484375 C 287.65625 295.324219 287.65625 295.167969 287.6875 295.007812 C 287.71875 294.847656 287.78125 294.703125 287.871094 294.566406 C 287.960938 294.433594 288.074219 294.320312 288.207031 294.230469 C 288.34375 294.140625 288.488281 294.078125 288.648438 294.046875 C 288.808594 294.015625 288.96875 294.015625 289.125 294.046875 C 289.285156 294.078125 289.433594 294.140625 289.566406 294.230469 C 289.703125 294.320312 289.8125 294.433594 289.902344 294.570312 C 289.992188 294.703125 290.054688 294.851562 290.085938 295.011719 C 290.113281 295.152344 292.875 309.292969 293.417969 327.816406 C 293.917969 344.945312 292.574219 369.476562 283.316406 388.996094 C 283.214844 389.207031 283.0625 389.375 282.863281 389.5 C 282.664062 389.625 282.445312 389.6875 282.210938 389.6875 Z M 282.210938 389.6875 " fill-opacity="1" fill-rule="nonzero"/></svg>