<svg xmlns="http://www.w3.org/2000/svg" xmlns:xlink="http://www.w3.org/1999/xlink" width="800" zoomAndPan="magnify" viewBox="0 0 600 607.92" height="800" preserveAspectRatio="xMidYMid meet" version="1.0"><defs><clipPath id="8f9d2d7b13"><path d="M 0.0390625 223 L 599.960938 223 L 599.960938 368 L 0.0390625 368 Z M 0.0390625 223 " clip-rule="nonzero"/></clipPath></defs><g clip-path="url(#8f9d2d7b13)"><path fill="#000000" d="M 0.460938 356.359375 C 18.199219 335.125 37.417969 323.992188 58.125 322.960938 L 58.191406 322.960938 C 65.050781 322.96875 71.878906 324.304688 78.679688 326.976562 C 78.746094 327 78.808594 327.03125 78.871094 327.070312 C 118.9375 350.761719 146.03125 362.648438 160.160156 362.71875 L 160.324219 362.730469 C 191.933594 366.8125 218.242188 363.371094 239.246094 352.402344 L 239.269531 352.390625 C 265.074219 339.542969 280.84375 315.355469 286.578125 279.828125 L 286.566406 279.941406 C 289.097656 246.078125 279.292969 228.320312 257.15625 226.664062 C 256.882812 226.644531 256.605469 226.625 256.328125 226.609375 L 256.726562 226.570312 C 234.179688 232.234375 225.140625 245.398438 229.613281 266.066406 L 227.605469 265.222656 C 235.285156 260.410156 235.25 251.503906 227.507812 238.5 L 227.5625 238.582031 C 220.957031 229.179688 212.78125 226.882812 203.03125 231.703125 L 203.199219 231.601562 C 190.746094 240.210938 185.25 253.574219 186.707031 271.691406 L 186.710938 271.726562 C 188.636719 306.066406 216.132812 333.488281 269.199219 353.996094 L 269.089844 353.957031 C 278.425781 356.664062 283.9375 357.21875 285.617188 355.625 C 285.730469 355.515625 285.863281 355.429688 286.003906 355.367188 C 290.953125 353.230469 297.253906 347.8125 304.898438 339.113281 L 304.839844 339.183594 C 323.359375 314.839844 332.988281 293.4375 333.734375 274.980469 L 333.738281 275.171875 C 332.785156 266.175781 328.523438 262.074219 320.945312 262.878906 C 317.648438 263.226562 313.726562 264.449219 309.183594 266.539062 L 309.453125 266.375 C 294.535156 278.191406 289.128906 289.214844 293.234375 299.441406 L 291.28125 298.820312 C 298.144531 294.398438 298.726562 287.222656 293.019531 277.289062 L 293.132812 277.457031 C 287.445312 270.324219 278.355469 266.757812 265.867188 266.757812 L 266.148438 266.730469 C 247.4375 270.777344 240.203125 282.589844 244.4375 302.171875 C 245.234375 305.859375 246.429688 309.820312 248.027344 314.054688 L 247.945312 313.882812 C 261.824219 339.03125 283.246094 355.085938 312.21875 362.046875 L 312.179688 362.039062 C 326.292969 364.976562 340.890625 363.796875 355.96875 358.5 C 356.183594 358.425781 356.414062 358.40625 356.636719 358.445312 C 356.632812 358.445312 356.628906 358.445312 356.628906 358.445312 C 359.746094 358.765625 379.554688 347.457031 416.046875 324.527344 L 416.152344 324.46875 C 425.347656 319.816406 433.507812 317.03125 440.632812 316.113281 L 440.625 316.113281 C 446.351562 315.339844 454.152344 316.109375 464.027344 318.429688 L 464.1875 318.476562 C 506.792969 334.335938 535.359375 342.214844 549.886719 342.121094 L 549.949219 342.121094 C 571.324219 342.984375 587.175781 338.1875 597.507812 327.738281 C 598.027344 327.214844 598.867188 327.210938 599.390625 327.726562 C 599.910156 328.242188 599.914062 329.085938 599.398438 329.605469 C 588.515625 340.613281 571.996094 345.667969 549.84375 344.777344 L 549.90625 344.777344 C 535.050781 344.875 506.171875 336.9375 463.261719 320.96875 L 463.421875 321.015625 C 453.863281 318.773438 446.386719 318.015625 440.984375 318.75 L 440.972656 318.75 C 434.148438 319.628906 426.277344 322.324219 417.351562 326.839844 L 417.460938 326.777344 C 380.449219 350.035156 360.082031 361.46875 356.355469 361.085938 C 356.296875 361.082031 356.234375 361.074219 356.175781 361.0625 L 356.847656 361.007812 C 341.304688 366.46875 326.234375 367.679688 311.636719 364.640625 L 311.597656 364.632812 C 281.867188 357.484375 259.871094 341 245.621094 315.167969 C 245.589844 315.109375 245.5625 315.050781 245.539062 314.992188 C 243.898438 310.636719 242.664062 306.550781 241.839844 302.734375 C 237.230469 281.421875 245.144531 268.554688 265.585938 264.132812 C 265.679688 264.113281 265.773438 264.101562 265.867188 264.101562 C 279.207031 264.101562 288.988281 268 295.210938 275.796875 C 295.253906 275.851562 295.292969 275.90625 295.324219 275.964844 C 301.867188 287.359375 301 295.722656 292.722656 301.054688 C 292.386719 301.269531 291.976562 301.324219 291.597656 301.203125 C 291.222656 301.082031 290.917969 300.800781 290.769531 300.433594 C 286.171875 288.976562 291.847656 276.929688 307.804688 264.292969 C 307.886719 264.226562 307.976562 264.171875 308.074219 264.125 C 312.878906 261.914062 317.078125 260.617188 320.667969 260.234375 C 330.003906 259.246094 335.242188 264.132812 336.382812 274.894531 C 336.390625 274.957031 336.390625 275.023438 336.390625 275.085938 C 335.621094 294.101562 325.8125 316.003906 306.957031 340.792969 L 306.894531 340.867188 C 298.984375 349.863281 292.375 355.511719 287.058594 357.808594 L 287.445312 357.554688 C 285.027344 359.84375 278.660156 359.496094 268.351562 356.511719 L 268.242188 356.472656 C 214.109375 335.554688 186.046875 307.355469 184.054688 271.875 L 184.058594 271.90625 C 182.519531 252.769531 188.394531 238.605469 201.6875 229.417969 C 201.742188 229.378906 201.796875 229.347656 201.855469 229.320312 C 212.964844 223.828125 222.261719 226.410156 229.738281 237.054688 L 229.792969 237.140625 C 238.421875 251.628906 238.164062 261.742188 229.019531 267.472656 C 228.652344 267.703125 228.195312 267.742188 227.796875 267.574219 C 227.398438 267.40625 227.105469 267.050781 227.015625 266.628906 C 222.179688 244.285156 231.871094 230.074219 256.082031 223.992188 C 256.210938 223.960938 256.34375 223.949219 256.480469 223.957031 C 256.773438 223.972656 257.0625 223.992188 257.351562 224.011719 L 257.355469 224.011719 C 281.257812 225.800781 291.878906 244.511719 289.214844 280.140625 L 289.203125 280.253906 C 283.324219 316.675781 267.074219 341.515625 240.453125 354.769531 L 240.476562 354.757812 C 218.976562 365.984375 192.148438 369.519531 159.984375 365.367188 L 160.148438 365.375 C 145.539062 365.300781 117.996094 353.292969 77.515625 329.355469 L 77.707031 329.449219 C 71.21875 326.902344 64.714844 325.625 58.1875 325.617188 L 58.257812 325.617188 C 38.324219 326.605469 19.738281 337.421875 2.5 358.0625 C 2.03125 358.625 1.191406 358.699219 0.628906 358.230469 C 0.0664062 357.757812 -0.0078125 356.921875 0.460938 356.359375 Z M 0.460938 356.359375 " fill-opacity="0.996" fill-rule="nonzero"/></g></svg>