<svg xmlns="http://www.w3.org/2000/svg" width="400" height="100" version="1.0" viewBox="0 0 300 75"><defs><clipPath id="a"><path d="M36 4h231v66H36Zm0 0"/></clipPath><clipPath id="b"><path d="M33.102 28.727 256.609-2.988l10.223 72.027L43.32 100.754Zm0 0"/></clipPath><clipPath id="c"><path d="M33.102 28.727 256.609-2.988l10.223 72.027L43.32 100.754Zm0 0"/></clipPath><clipPath id="d"><path d="M33.102 28.727 256.609-2.988l10.223 72.027L43.32 100.754Zm0 0"/></clipPath></defs><g clip-path="url(#a)"><g clip-path="url(#b)"><g clip-path="url(#c)"><g clip-path="url(#d)"><path d="M266.543 68.457a.539.539 0 0 0-.465-.46c-.25-.032-.555-.071-.754-.099-6.406-.875-12.527-2.082-18.195-3.582-5.832-1.543-11.191-3.402-15.922-5.527a48.898 48.898 0 0 1-7.324-4.078c.48-.078.96-.16 1.437-.254 2.973-.578 5.801-1.5 8.41-2.738 2.747-1.305 5.211-2.946 7.329-4.875a26.096 26.096 0 0 0 5.511-7.07c1.594-2.997 2.22-6.157 1.809-9.141-.598-4.324-3.164-7.36-7.04-8.328-2.132-.535-4.534-.375-6.76.449a12.6 12.6 0 0 0-5.274 3.691 5.321 5.321 0 0 0-.094-.289c-.613-1.66-1.633-3.234-2.95-4.547-1.34-1.34-2.917-2.34-4.566-2.89-1.289-.438-2.59-.59-3.86-.457-.148-2.696-.839-5.203-2.065-7.399-1.34-2.406-3.086-4.175-5.2-5.265-1.918-.993-4.097-1.375-6.304-1.106-2.512.309-5.012 1.465-7.04 3.254a14.572 14.572 0 0 0-4.43 7.2c-.327-.43-.589-.747-.702-.876a15.206 15.206 0 0 0-5.13-3.773c-2.007-.906-4.132-1.344-6.144-1.262a10.529 10.529 0 0 0-4.351 1.106c-1.426.718-2.664 1.773-3.676 3.132-.95 1.278-1.66 2.782-2.106 4.465-.41 1.555-.59 3.235-.535 4.996.102 3.305 1.063 6.735 2.63 9.414 1.382 2.364 3.167 4.59 5.304 6.622 1.96 1.863 4.238 3.578 6.77 5.097 3.542 2.13 6.757 3.875 9.816 5.328a61.65 61.65 0 0 1-4.352 2c-1.332.555-2.797 1.067-4.613 1.602-4.137 1.226-8.582 2.43-13.05 2.926-4.79.539-9 .187-12.876-1.075-3.719-1.21-7.273-3.046-10.71-4.828-2.294-1.183-4.66-2.41-7.075-3.449-3.844-1.656-7.777-2.59-12.023-2.848-3.778-.23-7.711.079-12.028.942-7.98 1.597-16.058 4.898-23.87 8.09-4.766 1.949-9.692 3.96-14.5 5.543-5.368 1.765-10.04 2.8-14.278 3.168-5.059.433-9.633-.047-13.988-1.477a33.814 33.814 0 0 1-6.903-3.187c-2.332-1.41-4.636-3.164-6.851-5.22a.538.538 0 0 0-.735.786c2.266 2.105 4.63 3.902 7.028 5.352a35.024 35.024 0 0 0 7.12 3.289c4.497 1.476 9.216 1.972 14.423 1.523.836-.07 1.687-.168 2.562-.293 3.625-.516 7.567-1.477 11.957-2.922 4.844-1.594 9.79-3.613 14.57-5.57 7.766-3.172 15.797-6.453 23.676-8.031 4.227-.844 8.067-1.149 11.746-.922 4.125.254 7.938 1.156 11.664 2.761 2.38 1.024 4.73 2.243 7.004 3.418 3.477 1.797 7.07 3.66 10.875 4.895 4.024 1.309 8.387 1.676 13.332 1.125 4.551-.512 9.051-1.727 13.235-2.965 1.855-.55 3.355-1.07 4.726-1.64a63.447 63.447 0 0 0 5.168-2.422 73.62 73.62 0 0 0 4.043 1.703c5.856 2.265 11.281 3.465 16.586 3.668 1.93.07 3.86 0 5.774-.219 2.527 1.82 5.363 3.45 8.449 4.852 4.789 2.144 10.203 4.023 16.09 5.585 5.71 1.512 11.879 2.723 18.328 3.606l.762.102a.541.541 0 0 0 .605-.606ZM193.66 18.25c.512 1.008.524 1.484.492 1.664a.468.468 0 0 1-.03.11c-.122-.149-.364-.633-.462-1.774Zm-8.246 24.7c-2.465-1.481-4.68-3.15-6.582-4.958-2.066-1.96-3.789-4.11-5.117-6.383-1.48-2.53-2.387-5.78-2.485-8.91-.05-1.656.118-3.234.5-4.691.41-1.551 1.06-2.93 1.93-4.094 1.555-2.09 3.676-3.36 6.176-3.715.336-.047.68-.078 1.027-.09 1.844-.078 3.797.329 5.653 1.164a14.13 14.13 0 0 1 4.765 3.504c.219.246.75.91 1.293 1.696-.11 1.593.055 3.578.805 4.332.293.293.664.402 1.047.304a.791.791 0 0 0 .133-.054c.359-.207.586-.54.66-.965.133-.8-.29-1.961-1.293-3.535a15.641 15.641 0 0 0-.246-.375c.039-.387.101-.742.18-1.028a13.512 13.512 0 0 1 4.081-6.605c1.864-1.645 4.157-2.707 6.454-2.988 1.992-.243 3.953.097 5.68.992 1.917.988 3.519 2.617 4.753 4.832 1.16 2.09 1.813 4.48 1.938 7.058-.95.223-1.864.61-2.727 1.157-2.195 1.39-3.906 3.687-4.937 6.632-.918 2.622-1.204 5.598-.79 8.168.204 1.25.512 2.493.922 3.727a37.814 37.814 0 0 1-1.87 2.035c-2.25 2.278-4.903 4.399-7.884 6.297a53.698 53.698 0 0 1-3.609 2.113c-3.25-1.504-6.66-3.34-10.457-5.62Zm31.371-23.407a21.181 21.181 0 0 1-.273 3.133c-.852 5.265-3.02 10.113-6.461 14.457a22.637 22.637 0 0 1-.672-2.906c-.39-2.403-.121-5.188.742-7.645.664-1.895 1.98-4.484 4.496-6.078a7.928 7.928 0 0 1 2.168-.961Zm-.207 34.52c-5.183-.196-10.492-1.372-16.238-3.594a73.345 73.345 0 0 1-3.242-1.344 55.997 55.997 0 0 0 2.964-1.766c3.047-1.941 5.762-4.113 8.07-6.449a36.792 36.792 0 0 0 1.516-1.625c1.036 2.684 2.563 5.324 4.563 7.887a39.144 39.144 0 0 0 6.824 6.793c-1.48.12-2.969.156-4.457.097Zm5.817-.415c-2.805-2.09-5.274-4.492-7.333-7.136-2.074-2.657-3.617-5.387-4.613-8.164 3.817-4.63 6.211-9.828 7.125-15.5.196-1.196.29-2.368.29-3.512 1.343-.152 2.554.086 3.488.398 3.007 1.012 5.699 3.68 6.847 6.793.047.13.168.52.29 1.035a7.706 7.706 0 0 0-.731 1.82c-.18.684-.336 1.63-.051 2.274.168.383.473.617.863.66a.425.425 0 0 0 .14-.004c.384-.058.696-.273.907-.624.36-.61.414-1.625.176-3.106a14.047 14.047 0 0 0-.152-.82c0-.004 0-.004.004-.008a11.491 11.491 0 0 1 5.308-3.996c2.024-.746 4.2-.895 6.121-.414 1.602.402 3.004 1.23 4.051 2.402 1.168 1.305 1.902 2.996 2.184 5.035.379 2.758-.204 5.696-1.692 8.492a25.123 25.123 0 0 1-5.285 6.782c-2.039 1.855-4.414 3.437-7.062 4.695a34.225 34.225 0 0 1-8.157 2.652c-.832.164-1.668.297-2.508.403-.07-.051-.14-.102-.21-.157Zm6.437-24.101c.09 1.047-.062 1.453-.144 1.594-.004.007-.012.015-.016.023-.05-.176-.09-.582.082-1.32.023-.098.047-.2.078-.297Zm0 0"/></g></g></g></g></svg>