<svg xmlns="http://www.w3.org/2000/svg" xmlns:xlink="http://www.w3.org/1999/xlink" width="800" zoomAndPan="magnify" viewBox="0 0 600 607.92" height="800" preserveAspectRatio="xMidYMid meet" version="1.0"><defs><clipPath id="4eda4651ec"><path d="M 0.0390625 184 L 599.960938 184 L 599.960938 416 L 0.0390625 416 Z M 0.0390625 184 " clip-rule="nonzero"/></clipPath></defs><g clip-path="url(#4eda4651ec)"><path fill="#000000" d="M 363.285156 377.289062 C 366.074219 377.378906 369.175781 377.582031 372.59375 377.902344 L 372.503906 377.898438 C 362.113281 385.941406 350.375 394.722656 337.289062 404.246094 L 337.28125 404.253906 C 333.71875 406.859375 331.109375 408.480469 329.445312 409.117188 C 329.585938 392.152344 337.140625 381.707031 352.113281 377.777344 L 352.0625 377.773438 C 354.960938 377.304688 358.699219 377.140625 363.285156 377.289062 Z M 465.558594 184.792969 C 438.886719 183.933594 401.609375 210.039062 353.722656 263.105469 C 343.984375 241.597656 333.886719 226.199219 323.421875 216.910156 C 315.457031 209.84375 307.359375 206.175781 299.125 205.914062 C 287.050781 205.523438 274.683594 212.445312 262.027344 226.679688 L 261.816406 226.941406 C 246.464844 248.28125 243.570312 271.890625 253.128906 297.769531 L 253.125 297.769531 C 256.488281 307.671875 262.363281 318.230469 270.75 329.441406 L 270.878906 329.601562 L 313.699219 379.832031 L 313.609375 379.832031 C 306.523438 380.140625 299.539062 380.183594 292.660156 379.964844 C 273.066406 379.332031 254.3125 376.546875 236.402344 371.605469 L 235.789062 371.5 C 226.65625 370.792969 192.804688 355.519531 134.230469 325.671875 L 133.988281 325.558594 C 118.65625 319.265625 104.726562 315.507812 92.207031 314.285156 L 92.203125 314.285156 C 88.878906 313.949219 85.589844 313.726562 82.339844 313.621094 C 52.1875 312.652344 25.289062 321.699219 1.644531 340.761719 C 0.246094 341.890625 0.0273438 343.9375 1.15625 345.335938 C 1.777344 346.105469 2.671875 346.515625 3.585938 346.546875 C 4.339844 346.570312 5.105469 346.335938 5.738281 345.824219 C 28.125 327.777344 53.609375 319.210938 82.1875 320.132812 C 85.273438 320.230469 88.390625 320.441406 91.546875 320.761719 L 91.558594 320.761719 C 103.449219 321.921875 116.765625 325.527344 131.511719 331.578125 L 131.484375 331.578125 C 190.28125 361.53125 224.808594 376.996094 235.070312 377.96875 L 234.984375 377.96875 C 253.296875 382.992188 272.449219 385.824219 292.441406 386.46875 C 301.664062 386.765625 311.066406 386.597656 320.648438 385.960938 C 321.878906 385.878906 322.957031 385.113281 323.433594 383.980469 C 323.914062 382.847656 323.710938 381.539062 322.914062 380.605469 L 275.839844 325.382812 L 275.847656 325.382812 C 267.914062 314.753906 262.386719 304.824219 259.269531 295.601562 L 259.238281 295.515625 C 250.519531 271.90625 253.078125 250.402344 266.917969 231.003906 L 266.898438 231.003906 C 277.996094 218.523438 288.730469 212.449219 299.09375 212.785156 C 305.917969 213.003906 312.585938 216.003906 319.09375 221.777344 C 329.574219 231.082031 339.808594 247.261719 349.792969 270.324219 C 350.234375 271.34375 351.167969 272.066406 352.265625 272.242188 C 352.402344 272.265625 352.542969 272.277344 352.679688 272.285156 C 353.636719 272.3125 354.570312 271.921875 355.21875 271.195312 C 403.375 217.117188 440.078125 190.484375 465.320312 191.296875 C 465.480469 191.300781 465.640625 191.308594 465.800781 191.316406 L 465.78125 191.3125 C 479.480469 192.222656 486.429688 202.859375 486.628906 223.226562 L 486.636719 223.402344 C 487.53125 237.332031 479.808594 258 463.464844 285.398438 C 449.890625 306.859375 432.90625 326.582031 412.515625 344.5625 L 412.445312 344.628906 C 404.113281 352.417969 393.210938 361.628906 379.734375 372.253906 C 379.144531 372.144531 378.554688 372.035156 377.964844 371.925781 L 377.730469 371.890625 C 372.410156 371.292969 367.683594 370.925781 363.546875 370.792969 C 358.484375 370.628906 354.308594 370.816406 351.015625 371.351562 L 350.730469 371.410156 C 331.527344 376.335938 322.269531 389.785156 322.960938 411.75 C 322.976562 412.214844 323.089844 412.671875 323.296875 413.089844 C 323.429688 413.363281 323.585938 413.621094 323.761719 413.859375 L 323.765625 413.863281 C 324.734375 415.179688 326.09375 415.867188 327.847656 415.929688 C 327.851562 415.929688 327.855469 415.929688 327.863281 415.929688 C 330.730469 416.019531 335.148438 413.878906 341.125 409.507812 C 356.363281 398.414062 369.800781 388.3125 381.425781 379.203125 L 381.515625 379.207031 C 427.871094 387.757812 461.265625 392.359375 481.699219 393.019531 C 485.917969 393.152344 489.578125 393.121094 492.691406 392.921875 L 492.640625 392.921875 C 527.332031 392.484375 562.226562 386.238281 597.316406 374.1875 C 599.019531 373.605469 599.921875 371.753906 599.339844 370.050781 C 598.886719 368.738281 597.675781 367.898438 596.363281 367.855469 C 595.976562 367.84375 595.582031 367.902344 595.199219 368.03125 C 560.765625 379.855469 526.554688 385.984375 492.5625 386.410156 L 492.386719 386.417969 C 489.390625 386.617188 485.847656 386.648438 481.757812 386.519531 C 462.605469 385.902344 431.457031 381.671875 388.308594 373.832031 L 388.222656 373.828125 C 399.789062 364.582031 409.324219 356.457031 416.828125 349.441406 C 437.707031 331.03125 455.105469 310.816406 469.019531 288.800781 L 469.0625 288.730469 C 486.027344 260.285156 494.058594 238.429688 493.152344 223.160156 L 493.144531 223.160156 C 492.90625 198.75 483.914062 185.96875 466.164062 184.816406 L 466.101562 184.8125 C 465.921875 184.804688 465.738281 184.796875 465.558594 184.792969 Z M 465.558594 184.792969 " fill-opacity="0.996" fill-rule="nonzero"/></g></svg>